<?xml version="1.0" encoding="utf-8"?>
<!-- Generator: Adobe Illustrator 25.0.1, SVG Export Plug-In . SVG Version: 6.00 Build 0)  -->
<svg version="1.1" id="Layer_1" xmlns="http://www.w3.org/2000/svg" xmlns:xlink="http://www.w3.org/1999/xlink" x="0px" y="0px"
	 viewBox="0 0 640 512" style="enable-background:new 0 0 640 512;" xml:space="preserve">
<style type="text/css">
	.st0{fill:#FFFFFF;}
</style>
<path class="st0" d="M544,128C544,57.3,486.7,0,416,0S288,57.3,288,128s57.3,128,128,128S544,198.7,544,128z M192,477.3
	c0,19.2,15.5,34.7,34.6,34.7h378.7c19.1,0,34.7-15.5,34.7-34.7c0-95.7-77.6-173.3-173.3-173.3H365.3C269.6,304,192,381.6,192,477.3z
	 M0,224c0,13.3,10.7,24,24,24h48v48c0,13.2,10.8,24,24,24s24-10.7,24-24v-48h48c13.2,0,24-10.8,24-24s-10.8-24-24-24h-48v-48
	c0-13.2-10.7-24-24-24s-24,10.8-24,24v48H24C10.7,200,0,210.7,0,224z"/>
</svg>
