<svg xmlns="http://www.w3.org/2000/svg" width="53" height="53" viewBox="0 0 53 53"><g transform="translate(0 0)"><circle cx="26.5" cy="26.5" r="26.5" transform="translate(0 0)" fill="#92a9df"/><g transform="translate(10.523 14.869)"><path d="M36.843,10.364l-8.728,8.89a.157.157,0,0,0,0,.227l6.108,6.505a1.053,1.053,0,0,1,0,1.493,1.057,1.057,0,0,1-1.493,0L26.647,21a.166.166,0,0,0-.235,0l-1.484,1.509a6.531,6.531,0,0,1-4.656,1.963,6.662,6.662,0,0,1-4.753-2.02L14.09,21a.166.166,0,0,0-.235,0L7.771,27.479a1.057,1.057,0,0,1-1.493,0,1.053,1.053,0,0,1,0-1.493l6.108-6.505a.173.173,0,0,0,0-.227l-8.736-8.89a.16.16,0,0,0-.276.114V28.266a2.6,2.6,0,0,0,2.6,2.6H34.523a2.6,2.6,0,0,0,2.6-2.6V10.477A.162.162,0,0,0,36.843,10.364Z" transform="translate(-3.375 -7.5)" fill="#fff"/><path d="M20.116,22.727a4.41,4.41,0,0,0,3.172-1.33L36.015,8.443a2.549,2.549,0,0,0-1.606-.568H5.832a2.533,2.533,0,0,0-1.606.568L16.953,21.4A4.41,4.41,0,0,0,20.116,22.727Z" transform="translate(-3.244 -7.875)" fill="#fff"/></g></g></svg>