<svg xmlns="http://www.w3.org/2000/svg" width="52" height="53" viewBox="0 0 52 53"><g transform="translate(0 0)"><ellipse cx="26" cy="26.5" rx="26" ry="26.5" transform="translate(0 0)" fill="#92df97"/><path d="M30.123,7.4A17.562,17.562,0,0,0,2.491,28.585L0,37.679l9.308-2.444A17.5,17.5,0,0,0,17.7,37.371h.008A17.725,17.725,0,0,0,35.429,19.814,17.625,17.625,0,0,0,30.123,7.4ZM17.707,34.413a14.566,14.566,0,0,1-7.434-2.032l-.53-.316-5.52,1.447,1.471-5.386-.348-.554a14.621,14.621,0,1,1,27.117-7.758A14.755,14.755,0,0,1,17.707,34.413Zm8-10.929c-.435-.221-2.594-1.281-3-1.423s-.7-.221-.989.221-1.131,1.423-1.392,1.724-.514.332-.949.111c-2.578-1.289-4.27-2.3-5.971-5.219-.451-.775.451-.72,1.289-2.4a.813.813,0,0,0-.04-.767c-.111-.221-.989-2.38-1.352-3.258-.356-.854-.72-.735-.989-.751-.253-.016-.546-.016-.838-.016a1.625,1.625,0,0,0-1.17.546,4.929,4.929,0,0,0-1.534,3.662,8.594,8.594,0,0,0,1.787,4.539c.221.293,3.092,4.721,7.5,6.627,2.784,1.2,3.875,1.3,5.267,1.1.846-.127,2.594-1.06,2.958-2.088a3.669,3.669,0,0,0,.253-2.088C26.437,23.808,26.145,23.7,25.71,23.484Z" transform="translate(8.613 6.585)" fill="#fff"/></g></svg>