<svg xmlns="http://www.w3.org/2000/svg" width="53" height="53" viewBox="0 0 53 53"><g transform="translate(0 0)"><circle cx="26.5" cy="26.5" r="26.5" transform="translate(0 0)" fill="#dfb992"/><path d="M22.6,12.829a10.512,10.512,0,0,1,.025,14.849L22.6,27.7l-4.65,4.65A10.518,10.518,0,0,1,3.076,17.479l2.568-2.568a1.106,1.106,0,0,1,1.889.734A12.751,12.751,0,0,0,8.2,19.293a1.114,1.114,0,0,1-.262,1.15l-.906.906a4.982,4.982,0,1,0,7,7.091l4.65-4.649a4.981,4.981,0,0,0,0-7.046,5.183,5.183,0,0,0-.716-.593,1.11,1.11,0,0,1-.481-.872,2.756,2.756,0,0,1,.809-2.062l1.457-1.457a1.112,1.112,0,0,1,1.424-.12,10.551,10.551,0,0,1,1.42,1.19Zm9.752-9.753a10.53,10.53,0,0,0-14.875,0l-4.65,4.65-.025.026A10.52,10.52,0,0,0,14.248,23.79a1.112,1.112,0,0,0,1.424-.12l1.457-1.457a2.756,2.756,0,0,0,.809-2.062,1.11,1.11,0,0,0-.481-.872,5.184,5.184,0,0,1-.716-.593,4.981,4.981,0,0,1,0-7.046l4.65-4.649a4.982,4.982,0,1,1,7,7.091l-.906.906a1.114,1.114,0,0,0-.262,1.15,12.751,12.751,0,0,1,.671,3.648,1.106,1.106,0,0,0,1.889.734l2.568-2.568a10.529,10.529,0,0,0,0-14.875Z" transform="translate(8.984 8.835)" fill="#fff"/></g></svg>