<svg xmlns="http://www.w3.org/2000/svg" width="30.045" height="34.995" viewBox="0 0 30.045 34.995"><path d="M11.13,32.617a1.645,1.645,0,0,1,.545-2.174,1.454,1.454,0,0,1,2.05.578,1.458,1.458,0,0,0,2.595,0,1.454,1.454,0,0,1,2.05-.578,1.645,1.645,0,0,1,.544,2.174,4.375,4.375,0,0,1-7.785,0ZM1.523,27.045A1.527,1.527,0,0,1,.06,25.906a1.608,1.608,0,0,1,.62-1.768,7.991,7.991,0,0,0,1.894-2.663c.889-1.818,1.949-5.089,1.949-10.338C4.523,5,9.233,0,15.023,0s10.5,5,10.5,11.137c0,5.249,1.06,8.519,1.949,10.338a8.023,8.023,0,0,0,1.894,2.663,1.608,1.608,0,0,1,.62,1.768,1.525,1.525,0,0,1-1.463,1.14Zm6-15.909a26.508,26.508,0,0,1-2.433,12.1q-.172.332-.344.63H25.3c-.113-.2-.229-.409-.343-.63a26.508,26.508,0,0,1-2.433-12.1,7.747,7.747,0,0,0-7.5-7.955A7.747,7.747,0,0,0,7.523,11.137Z" fill="#8e8e8e"/></svg>