<svg xmlns="http://www.w3.org/2000/svg" width="24.609" height="28.124" viewBox="0 0 24.609 28.124"><path d="M12.3,28.124a3.515,3.515,0,0,0,3.514-3.516H8.791A3.515,3.515,0,0,0,12.3,28.124ZM24.136,19.9c-1.061-1.14-3.047-2.856-3.047-8.475A8.674,8.674,0,0,0,14.061,2.9V1.758a1.757,1.757,0,1,0-3.513,0V2.9A8.674,8.674,0,0,0,3.52,11.426c0,5.619-1.986,7.335-3.047,8.475A1.716,1.716,0,0,0,0,21.093a1.759,1.759,0,0,0,1.763,1.758H22.846a1.759,1.759,0,0,0,1.763-1.758A1.715,1.715,0,0,0,24.136,19.9Z" transform="translate(0)" fill="#fafafa"/></svg>