<svg xmlns="http://www.w3.org/2000/svg" width="18.133" height="20.724" viewBox="0 0 18.133 20.724"><path d="M1.3,18.781a1.943,1.943,0,0,0,1.943,1.943H14.9a1.943,1.943,0,0,0,1.943-1.943V5.181H1.3ZM12.3,8.419a.648.648,0,0,1,1.3,0v9.067a.648.648,0,0,1-1.3,0Zm-3.886,0a.648.648,0,0,1,1.3,0v9.067a.648.648,0,0,1-1.3,0Zm-3.886,0a.648.648,0,0,1,1.3,0v9.067a.648.648,0,0,1-1.3,0ZM17.486,1.3H12.629l-.38-.757A.971.971,0,0,0,11.378,0H6.751a.96.96,0,0,0-.866.538L5.5,1.3H.648A.648.648,0,0,0,0,1.943v1.3a.648.648,0,0,0,.648.648H17.486a.648.648,0,0,0,.648-.648v-1.3A.648.648,0,0,0,17.486,1.3Z" transform="translate(0 0)" fill="#8e8e8e"/></svg>