<svg xmlns="http://www.w3.org/2000/svg" width="36.701" height="40.062" viewBox="0 0 36.701 40.062"><path d="M20.921,5.558,36.3,39.016H5.542L20.921,5.558Zm0-3.63c-.791,0-1.582.582-2.182,1.747L3.074,37.755c-1.2,2.329-.179,4.235,2.269,4.235H36.5c2.448,0,3.469-1.906,2.269-4.235h0L23.1,3.675c-.6-1.165-1.391-1.747-2.182-1.747Zm2.294,32.55a2.406,2.406,0,0,1-2.294,2.5,2.513,2.513,0,0,1,0-5.008A2.406,2.406,0,0,1,23.215,34.478ZM20.921,29.47a2.406,2.406,0,0,1-2.294-2.5V19.455a2.406,2.406,0,0,1,2.294-2.5,2.406,2.406,0,0,1,2.294,2.5v7.512A2.406,2.406,0,0,1,20.921,29.47Z" transform="translate(-2.571 -1.928)" fill="#ddb06f"/></svg>